<mxfile host="app.diagrams.net" modified="2024-01-24T16:08:50.391Z" agent="Mozilla/5.0 (Windows NT 10.0; Win64; x64) AppleWebKit/537.36 (KHTML, like Gecko) Chrome/120.0.0.0 Safari/537.36" etag="hMgcxlQlzkNASJEPm6pu" version="23.0.1" type="device">
  <diagram name="Страница — 1" id="plo4IeF6B9s8XhZqgeJM">
    <mxGraphModel dx="1050" dy="557" grid="1" gridSize="10" guides="1" tooltips="1" connect="1" arrows="1" fold="1" page="1" pageScale="1" pageWidth="827" pageHeight="1169" math="0" shadow="0">
      <root>
        <mxCell id="0" />
        <mxCell id="1" parent="0" />
        <mxCell id="SSoJgm2aa9j7SRcqIIJx-7" value="" style="edgeStyle=orthogonalEdgeStyle;rounded=0;orthogonalLoop=1;jettySize=auto;html=1;" edge="1" parent="1" source="SSoJgm2aa9j7SRcqIIJx-1" target="SSoJgm2aa9j7SRcqIIJx-3">
          <mxGeometry relative="1" as="geometry" />
        </mxCell>
        <mxCell id="SSoJgm2aa9j7SRcqIIJx-1" value="scRNA-seq" style="rounded=0;whiteSpace=wrap;html=1;" vertex="1" parent="1">
          <mxGeometry x="150" y="70" width="120" height="60" as="geometry" />
        </mxCell>
        <mxCell id="SSoJgm2aa9j7SRcqIIJx-8" value="" style="edgeStyle=orthogonalEdgeStyle;rounded=0;orthogonalLoop=1;jettySize=auto;html=1;" edge="1" parent="1" source="SSoJgm2aa9j7SRcqIIJx-2" target="SSoJgm2aa9j7SRcqIIJx-3">
          <mxGeometry relative="1" as="geometry" />
        </mxCell>
        <mxCell id="SSoJgm2aa9j7SRcqIIJx-2" value="ATAC-seq" style="rounded=0;whiteSpace=wrap;html=1;" vertex="1" parent="1">
          <mxGeometry x="294" y="70" width="120" height="60" as="geometry" />
        </mxCell>
        <mxCell id="SSoJgm2aa9j7SRcqIIJx-10" value="" style="edgeStyle=orthogonalEdgeStyle;rounded=0;orthogonalLoop=1;jettySize=auto;html=1;" edge="1" parent="1" source="SSoJgm2aa9j7SRcqIIJx-3" target="SSoJgm2aa9j7SRcqIIJx-4">
          <mxGeometry relative="1" as="geometry" />
        </mxCell>
        <mxCell id="SSoJgm2aa9j7SRcqIIJx-3" value="Dimensionality reduction" style="rounded=0;whiteSpace=wrap;html=1;" vertex="1" parent="1">
          <mxGeometry x="220" y="190" width="120" height="60" as="geometry" />
        </mxCell>
        <mxCell id="SSoJgm2aa9j7SRcqIIJx-12" value="" style="edgeStyle=orthogonalEdgeStyle;rounded=0;orthogonalLoop=1;jettySize=auto;html=1;" edge="1" parent="1" source="SSoJgm2aa9j7SRcqIIJx-4" target="SSoJgm2aa9j7SRcqIIJx-5">
          <mxGeometry relative="1" as="geometry" />
        </mxCell>
        <mxCell id="SSoJgm2aa9j7SRcqIIJx-4" value="&lt;span style=&quot;color: rgb(34, 40, 50); font-family: -apple-system, BlinkMacSystemFont, &amp;quot;Segoe UI&amp;quot;, &amp;quot;Helvetica Neue&amp;quot;, Arial, sans-serif, &amp;quot;Apple Color Emoji&amp;quot;, &amp;quot;Segoe UI Emoji&amp;quot;, &amp;quot;Segoe UI Symbol&amp;quot;; font-style: normal; font-variant-ligatures: normal; font-variant-caps: normal; font-weight: 400; letter-spacing: normal; orphans: 2; text-align: start; text-indent: 0px; text-transform: none; widows: 2; word-spacing: 0px; -webkit-text-stroke-width: 0px; background-color: rgb(255, 255, 255); text-decoration-thickness: initial; text-decoration-style: initial; text-decoration-color: initial; float: none; display: inline !important;&quot;&gt;&lt;font style=&quot;font-size: 12px;&quot;&gt;Removal of unwanted variation&lt;/font&gt;&lt;/span&gt;" style="rounded=0;whiteSpace=wrap;html=1;" vertex="1" parent="1">
          <mxGeometry x="220" y="280" width="120" height="60" as="geometry" />
        </mxCell>
        <mxCell id="SSoJgm2aa9j7SRcqIIJx-18" value="" style="edgeStyle=orthogonalEdgeStyle;rounded=0;orthogonalLoop=1;jettySize=auto;html=1;" edge="1" parent="1" source="SSoJgm2aa9j7SRcqIIJx-5" target="SSoJgm2aa9j7SRcqIIJx-17">
          <mxGeometry relative="1" as="geometry" />
        </mxCell>
        <mxCell id="SSoJgm2aa9j7SRcqIIJx-21" value="" style="edgeStyle=orthogonalEdgeStyle;rounded=0;orthogonalLoop=1;jettySize=auto;html=1;" edge="1" parent="1" source="SSoJgm2aa9j7SRcqIIJx-5" target="SSoJgm2aa9j7SRcqIIJx-19">
          <mxGeometry relative="1" as="geometry" />
        </mxCell>
        <mxCell id="SSoJgm2aa9j7SRcqIIJx-5" value="Differential expression" style="rounded=0;whiteSpace=wrap;html=1;" vertex="1" parent="1">
          <mxGeometry x="220" y="370" width="120" height="60" as="geometry" />
        </mxCell>
        <mxCell id="SSoJgm2aa9j7SRcqIIJx-16" value="" style="edgeStyle=orthogonalEdgeStyle;rounded=0;orthogonalLoop=1;jettySize=auto;html=1;" edge="1" parent="1" source="SSoJgm2aa9j7SRcqIIJx-13" target="SSoJgm2aa9j7SRcqIIJx-14">
          <mxGeometry relative="1" as="geometry" />
        </mxCell>
        <mxCell id="SSoJgm2aa9j7SRcqIIJx-13" value="Machine Learning model benchmarking" style="rounded=0;whiteSpace=wrap;html=1;" vertex="1" parent="1">
          <mxGeometry x="294" y="560" width="120" height="60" as="geometry" />
        </mxCell>
        <mxCell id="SSoJgm2aa9j7SRcqIIJx-14" value="Cell development stage classification" style="rounded=0;whiteSpace=wrap;html=1;" vertex="1" parent="1">
          <mxGeometry x="294" y="655" width="120" height="60" as="geometry" />
        </mxCell>
        <mxCell id="SSoJgm2aa9j7SRcqIIJx-20" value="" style="edgeStyle=orthogonalEdgeStyle;rounded=0;orthogonalLoop=1;jettySize=auto;html=1;" edge="1" parent="1" source="SSoJgm2aa9j7SRcqIIJx-17" target="SSoJgm2aa9j7SRcqIIJx-19">
          <mxGeometry relative="1" as="geometry" />
        </mxCell>
        <mxCell id="SSoJgm2aa9j7SRcqIIJx-17" value="Feature extraction" style="rounded=0;whiteSpace=wrap;html=1;" vertex="1" parent="1">
          <mxGeometry x="390" y="370" width="120" height="60" as="geometry" />
        </mxCell>
        <mxCell id="SSoJgm2aa9j7SRcqIIJx-22" value="" style="edgeStyle=orthogonalEdgeStyle;rounded=0;orthogonalLoop=1;jettySize=auto;html=1;" edge="1" parent="1" source="SSoJgm2aa9j7SRcqIIJx-19" target="SSoJgm2aa9j7SRcqIIJx-13">
          <mxGeometry relative="1" as="geometry" />
        </mxCell>
        <mxCell id="SSoJgm2aa9j7SRcqIIJx-19" value="Feature engineering" style="rounded=0;whiteSpace=wrap;html=1;" vertex="1" parent="1">
          <mxGeometry x="294" y="470" width="120" height="60" as="geometry" />
        </mxCell>
      </root>
    </mxGraphModel>
  </diagram>
</mxfile>
